<svg width="107" height="119" viewBox="0 0 107 119" fill="none" xmlns="http://www.w3.org/2000/svg">
<path fill-rule="evenodd" clip-rule="evenodd" d="M16.4745 110.408C16.4745 113.701 13.0609 115.749 8.09942 115.749C4.72819 115.749 2.01425 114.841 0.190824 113.722V109.5C1.88704 110.619 4.60098 111.484 7.2089 111.484C8.60828 111.484 9.20195 111.252 9.20195 110.745C9.20195 110.281 8.84155 110.049 7.71777 109.88L5.66111 109.563C1.86583 109.014 0 107.558 0 105.003C0 102.132 2.62913 100 8.56588 100C12.1915 100 14.3755 100.844 15.4992 101.457V105.573C14.2906 104.94 12.2339 104.307 9.60477 104.307C7.73897 104.307 7.23011 104.581 7.23011 105.046C7.23011 105.404 7.46334 105.616 8.75674 105.763L10.9617 106.017C14.5026 106.439 16.4745 107.663 16.4745 110.408ZM29.5564 108.993L27.6058 115.263H20.715L16.6229 102.766H23.2592L24.7223 109.352L26.6304 102.766H32.9277L34.8996 109.416L36.4049 102.766H42.7445L38.9493 115.263H31.6555L29.5564 108.993ZM47.2184 115.686C49.381 115.686 50.9288 114.821 51.7981 113.512V115.264H58.1801V109.438C58.1801 104.751 55.3602 102.197 49.9323 102.197C46.9851 102.197 44.78 102.935 43.2535 103.907V108.255C44.3772 107.369 46.0734 106.778 47.6636 106.778C49.9323 106.778 51.4801 107.728 51.7345 109.564C50.738 108.403 49.4446 107.833 47.5788 107.833C44.674 107.833 42.7022 109.438 42.7022 111.802C42.7022 114.04 44.3984 115.686 47.2184 115.686ZM48.5541 111.441C48.5541 112.159 49.1478 112.645 50.0807 112.645C51.0985 112.645 51.7981 112.138 51.7981 111.441C51.7981 110.724 51.1196 110.238 50.1019 110.238C49.1478 110.238 48.5541 110.745 48.5541 111.441ZM66.4492 115.262V112.412C66.4492 109.308 67.891 108.084 70.3504 108.084C71.4318 108.084 72.2375 108.337 72.6403 108.57V102.891C72.2587 102.701 71.4742 102.426 70.5413 102.426C68.209 102.426 66.8944 103.756 66.3007 106.838V102.764H59.8339V115.262H66.4492ZM82.1815 113.512C81.3122 114.821 79.7644 115.686 77.6017 115.686C74.7817 115.686 73.0855 114.04 73.0855 111.802C73.0855 109.438 75.0574 107.833 77.9622 107.833C79.828 107.833 81.1214 108.403 82.1179 109.564C81.8634 107.728 80.3157 106.778 78.047 106.778C76.4568 106.778 74.7606 107.369 73.6368 108.255V103.907C75.1634 102.935 77.3685 102.197 80.3157 102.197C85.7436 102.197 88.5632 104.751 88.5632 109.438V115.264H82.1815V113.512ZM80.4641 112.645C79.5312 112.645 78.9375 112.159 78.9375 111.441C78.9375 110.745 79.5312 110.238 80.4854 110.238C81.503 110.238 82.1815 110.724 82.1815 111.441C82.1815 112.138 81.4819 112.645 80.4641 112.645ZM106.564 102.766L98.2958 119H90.8536L93.5249 114.102L87.9914 102.766H94.924L97.1929 108.571L99.6526 102.766H106.564Z" fill="white"/>
<path d="M52.2065 88.93C83.3809 88.93 105.428 77.0726 105.428 57.0337C105.428 41.2636 91.9153 35.0977 71.409 33.7934L60.2668 33.082C53.8747 32.7394 53.3083 31.6272 53.2751 30.5923L53.2735 30.5128L53.2732 30.4733C53.2732 28.4576 54.4587 27.2718 64.1784 27.2718C79.8249 27.2718 91.5596 30.3547 99.5013 34.1491V8.06299C92.8635 4.98007 79.4692 0 55.644 0C16.8835 0 1 12.9245 1 29.5248C1 44.3464 13.8016 52.1722 36.7971 54.6623L47.8208 55.848C51.4952 56.2037 52.7992 56.9151 52.7992 58.6938C52.7992 60.7095 51.0212 61.4209 45.2131 61.4209C29.3295 61.4209 11.3124 56.0852 2.65947 49.8007V76.2427C13.5646 83.1198 30.3963 88.93 52.2065 88.93Z" fill="white"/>
</svg>
